<svg xmlns="http://www.w3.org/2000/svg" viewBox="0 0 1362.17 358.5"><defs><style>.cls-1{fill:#e53e6a;}</style></defs><title>gajihub-logo-color</title><g id="Layer_2" data-name="Layer 2"><g id="Layer_1-2" data-name="Layer 1"><path class="cls-1" d="M266,110.18c-15.36-12-41.92-12.17-74.65,11.24h0l-16.83,12-40,28.64-29.56-32.4a19.78,19.78,0,0,0-29.22,26.66l41.4,45.36a19.79,19.79,0,0,0,26.12,2.75s80.49-65.09,80.93-65.42c10.54-9,20.67-12.79,34.73-9.44,11.39,2.72,20.71,12.1,20.88,21.44C282.53,134.12,277.27,119,266,110.18Z"/><path class="cls-1" d="M259.84,144c-3-1-14.35-4.52-28.24,7.25l-29,23.42,18.09-6.79a9.18,9.18,0,0,1,11.64,12.23,100.64,100.64,0,0,1-103.18,60c-46.27-4.91-83.8-42.2-89-88.45a100.41,100.41,0,0,1,170-83.41,19.79,19.79,0,1,0,27.92-28.05A139.6,139.6,0,0,0,128,.51C59.63,6.27,4.72,62.36.3,130.86c-5.25,81.42,59.49,149.35,139.81,149.35a140.15,140.15,0,0,0,122.4-72,97.37,97.37,0,0,0,6.5-13.25C277.42,172.55,277.09,149.75,259.84,144Z"/><path class="cls-1" d="M884.05,31.28a11.3,11.3,0,0,0-11.3,11.3V144.45H731.53V42.58a11.3,11.3,0,1,0-22.6,0V268.91a11.3,11.3,0,1,0,22.6,0V167.05H872.75V268.91a11.3,11.3,0,0,0,22.6,0V42.58A11.3,11.3,0,0,0,884.05,31.28Z"/><path class="cls-1" d="M572.69,77.64a19.78,19.78,0,0,0-19.78,19.78v208a13.49,13.49,0,0,1-13.5,13.5h-8.16a19.78,19.78,0,0,0-19.78,19.78h0a19.78,19.78,0,0,0,19.78,19.78h8.16a53,53,0,0,0,53.05-53.05v-208A19.76,19.76,0,0,0,572.69,77.64Z"/><circle class="cls-1" cx="572.69" cy="25.27" r="25.27"/><path class="cls-1" d="M649.71,77.64h0a19.78,19.78,0,0,0-19.78,19.78v163a19.78,19.78,0,0,0,19.78,19.78h0a19.78,19.78,0,0,0,19.78-19.78v-163A19.77,19.77,0,0,0,649.71,77.64Z"/><path class="cls-1" d="M649.71,0h0a25.27,25.27,0,1,0,0,50.54h0a25.27,25.27,0,0,0,0-50.54Z"/><path class="cls-1" d="M1361.53,167.39C1356.41,121,1319,83.54,1272.66,78.3a101.12,101.12,0,0,0-90.46,36.9V42.58a11.3,11.3,0,1,0-22.6,0V178.92a101.29,101.29,0,1,0,201.93-11.53Zm-22.62,21.79a78.71,78.71,0,1,1-88.29-88.29A78.92,78.92,0,0,1,1338.91,189.18Z"/><path class="cls-1" d="M1111.44,77.64a11.3,11.3,0,0,0-11.3,11.3v93.85c0,39.11-30,72.81-69.05,74.73a72.79,72.79,0,0,1-76.38-72.62v-96a11.3,11.3,0,0,0-22.6,0v96a95.26,95.26,0,0,0,168,61.55v22.46a11.3,11.3,0,1,0,22.6,0v-180A11.29,11.29,0,0,0,1111.44,77.64Z"/><path class="cls-1" d="M511.48,178.93h0a101.66,101.66,0,1,0-39.56,80.12v1.39a19.78,19.78,0,0,0,39.56,0V178.93ZM410.19,240.66a61.73,61.73,0,1,1,61.73-61.73A61.81,61.81,0,0,1,410.19,240.66Z"/></g></g></svg>